# xmcd
#
# Track frame offsets:
#	150
#	16779
#	47479
#	63529
#	87703
#	108922
#	129935
#	183734
#	192153
#	207940
#	227274
#	241478
#	259399
#	287047
#	297218
#
# Disc length: 4357 seconds
# Revision: 2
# Processed by: cddbd v1.5.2PL0 Copyright (c) Steve Scherf et al.
# Submitted via: dBpowerAMP V12.0
#
DISCID=d711030f
DTITLE=Stevie Ray Vaughan - The Best Of Stevie Ray Vaughan
DYEAR=2007
DGENRE=Blues
TTITLE0=Pride And Joy
TTITLE1=Little Wing
TTITLE2=Taxman
TTITLE3=Texas Flood
TTITLE4=Couldn't Stand The Weather
TTITLE5=Tightrope
TTITLE6=Voodoo Chile (Slight Return)
TTITLE7=Scuttle Buttin'
TTITLE8=Empty Arms
TTITLE9=Life Without You
TTITLE10=Look At Little Sister
TTITLE11=Change It
TTITLE12=Ain't Gone 'N' Gave Up On Love
TTITLE13=Boot Hill
TTITLE14=Dirty Pool
EXTD=
EXTT0=
EXTT1=
EXTT2=
EXTT3=
EXTT4=
EXTT5=
EXTT6=
EXTT7=
EXTT8=
EXTT9=
EXTT10=
EXTT11=
EXTT12=
EXTT13=
EXTT14=
PLAYORDER=
